<?xml version="1.0" encoding="UTF-8"?>
<svg xmlns="http://www.w3.org/2000/svg" xmlns:xlink="http://www.w3.org/1999/xlink" width="64px" height="64px" viewBox="0 0 64 64" version="1.1">
<g id="surface1">
<path style=" stroke:none;fill-rule:nonzero;fill:rgb(0%,0%,0%);fill-opacity:1;" d="M 9.601562 17.601562 C 9.601562 14.949219 11.75 12.800781 14.398438 12.800781 C 17.050781 12.800781 19.199219 14.949219 19.199219 17.601562 L 19.199219 28.800781 L 44.800781 28.800781 L 44.800781 17.601562 C 44.800781 14.949219 46.949219 12.800781 49.601562 12.800781 C 52.25 12.800781 54.398438 14.949219 54.398438 17.601562 L 54.398438 19.199219 L 56 19.199219 C 58.648438 19.199219 60.800781 21.351562 60.800781 24 L 60.800781 28.800781 C 62.570312 28.800781 64 30.230469 64 32 C 64 33.769531 62.570312 35.199219 60.800781 35.199219 L 60.800781 40 C 60.800781 42.648438 58.648438 44.800781 56 44.800781 L 54.398438 44.800781 L 54.398438 46.398438 C 54.398438 49.050781 52.25 51.199219 49.601562 51.199219 C 46.949219 51.199219 44.800781 49.050781 44.800781 46.398438 L 44.800781 35.199219 L 19.199219 35.199219 L 19.199219 46.398438 C 19.199219 49.050781 17.050781 51.199219 14.398438 51.199219 C 11.75 51.199219 9.601562 49.050781 9.601562 46.398438 L 9.601562 44.800781 L 8 44.800781 C 5.351562 44.800781 3.199219 42.648438 3.199219 40 L 3.199219 35.199219 C 1.429688 35.199219 0 33.769531 0 32 C 0 30.230469 1.429688 28.800781 3.199219 28.800781 L 3.199219 24 C 3.199219 21.351562 5.351562 19.199219 8 19.199219 L 9.601562 19.199219 Z M 9.601562 17.601562 "/>
</g>
</svg>
